<svg xmlns="http://www.w3.org/2000/svg" width="287.4143981933594" height="319.70550537109375" viewBox="-46.88713455200195 -76.7127685546875 287.4143981933594 319.70550537109375"><title>Neo4j Graph Visualization</title><desc>Created using Neo4j (http://www.neo4j.com/)</desc><g class="layer relationships"><g class="relationship" transform="translate(157.00949597553344 203.74247671730637) rotate(237.60533997883022)"><path class="outline" fill="#A5ABB6" stroke="none" d="M 25 0.5 L 37.339113295667204 0.5 L 37.339113295667204 -0.5 L 25 -0.5 Z M 73.1125507956672 0.5 L 85.45166409133441 0.5 L 85.45166409133441 3.5 L 92.45166409133441 0 L 85.45166409133441 -3.5 L 85.45166409133441 -0.5 L 73.1125507956672 -0.5 Z"/><text text-anchor="middle" pointer-events="none" font-size="8px" fill="#000000" x="55.225832045667204" y="3" transform="rotate(180 55.225832045667204 0)" font-family="sans-serif">WROTE</text></g><g class="relationship" transform="translate(211.5272461769582 114.68122473207048) rotate(184.9212989548269)"><path class="outline" fill="#A5ABB6" stroke="none" d="M 25 0.5 L 32.657156028544385 0.5 L 32.657156028544385 -0.5 L 25 -0.5 Z M 78.21965602854439 0.5 L 85.87681205708877 0.5 L 85.87681205708877 3.5 L 92.87681205708877 0 L 85.87681205708877 -3.5 L 85.87681205708877 -0.5 L 78.21965602854439 -0.5 Z"/><text text-anchor="middle" pointer-events="none" font-size="8px" fill="#000000" x="55.438406028544385" y="3" transform="rotate(180 55.438406028544385 0)" font-family="sans-serif">ACTED_IN</text></g><g class="relationship" transform="translate(179.9015608360459 25.4729934594108) rotate(497.333681685917)"><path class="outline" fill="#A5ABB6" stroke="none" d="M 25 0.5 L 31.40844696186305 0.5 L 31.40844696186305 -0.5 L 25 -0.5 Z M 78.29907196186305 0.5 L 84.7075189237261 0.5 L 84.7075189237261 3.5 L 91.7075189237261 0 L 84.7075189237261 -3.5 L 84.7075189237261 -0.5 L 78.29907196186305 -0.5 Z"/><text text-anchor="middle" pointer-events="none" font-size="8px" fill="#000000" x="54.85375946186305" y="3" transform="rotate(180 54.85375946186305 0)" font-family="sans-serif">DIRECTED</text></g><g class="relationship" transform="translate(93.39276379902043 -13.721802029889071) rotate(449.6647142404578)"><path class="outline" fill="#A5ABB6" stroke="none" d="M 25 0.5 L 32.865109627233316 0.5 L 32.865109627233316 -0.5 L 25 -0.5 Z M 78.42760962723332 0.5 L 86.29271925446663 0.5 L 86.29271925446663 3.5 L 93.29271925446663 0 L 86.29271925446663 -3.5 L 86.29271925446663 -0.5 L 78.42760962723332 -0.5 Z"/><text text-anchor="middle" pointer-events="none" font-size="8px" fill="#000000" x="55.646359627233316" y="3" font-family="sans-serif">ACTED_IN</text></g><g class="relationship" transform="translate(0.05002157917977412 34.528322444307705) rotate(396.6800438978305)"><path class="outline" fill="#A5ABB6" stroke="none" d="M 25 0.5 L 32.34523001990144 0.5 L 32.34523001990144 -0.5 L 25 -0.5 Z M 77.90773001990144 0.5 L 85.25296003980289 0.5 L 85.25296003980289 3.5 L 92.25296003980289 0 L 85.25296003980289 -3.5 L 85.25296003980289 -0.5 L 77.90773001990144 -0.5 Z"/><text text-anchor="middle" pointer-events="none" font-size="8px" fill="#000000" x="55.12648001990144" y="3" font-family="sans-serif">ACTED_IN</text></g><g class="relationship" transform="translate(-17.88713359423236 138.05090381882087) rotate(343.3522327419495)"><path class="outline" fill="#A5ABB6" stroke="none" d="M 25 0.5 L 37.04871908987751 0.5 L 37.04871908987751 -0.5 L 25 -0.5 Z M 72.82215658987751 0.5 L 84.87087567975502 0.5 L 84.87087567975502 3.5 L 91.87087567975502 0 L 84.87087567975502 -3.5 L 84.87087567975502 -0.5 L 72.82215658987751 -0.5 Z"/><text text-anchor="middle" pointer-events="none" font-size="8px" fill="#000000" x="54.93543783987751" y="3" font-family="sans-serif">WROTE</text></g><g class="relationship" transform="translate(52.81606105837108 213.9927507448635) rotate(290.6638393086237)"><path class="outline" fill="#A5ABB6" stroke="none" d="M 25 0.5 L 37.08700482557096 0.5 L 37.08700482557096 -0.5 L 25 -0.5 Z M 72.86044232557096 0.5 L 84.94744715114192 0.5 L 84.94744715114192 3.5 L 91.94744715114192 0 L 84.94744715114192 -3.5 L 84.94744715114192 -0.5 L 72.86044232557096 -0.5 Z"/><text text-anchor="middle" pointer-events="none" font-size="8px" fill="#000000" x="54.97372357557096" y="3" font-family="sans-serif">WROTE</text></g></g><g class="layer nodes"><g class="node" transform="translate(94.08498996641485,104.56889182025805)"><circle class="outline" cx="0" cy="0" r="25" fill="#57C7E3" stroke="#23b3d7" stroke-width="2px"/><text text-anchor="middle" pointer-events="none" font-family="sans-serif" dy="1.5625" font-size="25" fill="#2A2C34"/><text text-anchor="middle" pointer-events="none" font-family="sans-serif" dy="1.5625" font-size="25" fill="#2A2C34"/><text text-anchor="middle" pointer-events="none" font-family="sans-serif" dy="1.5625" font-size="25" fill="#2A2C34"/><text text-anchor="middle" pointer-events="none" x="0" y="-5" font-size="10px" fill="#2A2C34" font-family="sans-serif"> Captain</text><text text-anchor="middle" pointer-events="none" x="0" y="5" font-size="10px" fill="#2A2C34" font-family="sans-serif"> America:</text><text text-anchor="middle" pointer-events="none" x="0" y="15" font-size="10px" fill="#2A2C34" font-family="sans-serif"> The Fi…</text></g><g class="node" transform="translate(157.00949597553344,203.74247671730637)"><circle class="outline" cx="0" cy="0" r="25" fill="#F79767" stroke="#f36924" stroke-width="2px"/><text text-anchor="middle" pointer-events="none" font-family="sans-serif" dy="1.5625" font-size="25" fill="#FFFFFF"/><text text-anchor="middle" pointer-events="none" font-family="sans-serif" dy="1.5625" font-size="25" fill="#FFFFFF"/><text text-anchor="middle" pointer-events="none" x="0" y="0" font-size="10px" fill="#FFFFFF" font-family="sans-serif"> Stephen</text><text text-anchor="middle" pointer-events="none" x="0" y="10" font-size="10px" fill="#FFFFFF" font-family="sans-serif"> McFeely</text></g><g class="node" transform="translate(211.5272461769582,114.68122473207048)"><circle class="outline" cx="0" cy="0" r="25" fill="#F79767" stroke="#f36924" stroke-width="2px"/><text text-anchor="middle" pointer-events="none" font-family="sans-serif" dy="1.5625" font-size="25" fill="#FFFFFF"/><text text-anchor="middle" pointer-events="none" font-family="sans-serif" dy="1.5625" font-size="25" fill="#FFFFFF"/><text text-anchor="middle" pointer-events="none" x="0" y="0" font-size="10px" fill="#FFFFFF" font-family="sans-serif"> Chris</text><text text-anchor="middle" pointer-events="none" x="0" y="10" font-size="10px" fill="#FFFFFF" font-family="sans-serif"> Evans</text></g><g class="node" transform="translate(179.9015608360459,25.4729934594108)"><circle class="outline" cx="0" cy="0" r="25" fill="#F79767" stroke="#f36924" stroke-width="2px"/><text text-anchor="middle" pointer-events="none" font-family="sans-serif" dy="1.5625" font-size="25" fill="#FFFFFF"/><text text-anchor="middle" pointer-events="none" font-family="sans-serif" dy="1.5625" font-size="25" fill="#FFFFFF"/><text text-anchor="middle" pointer-events="none" x="0" y="0" font-size="10px" fill="#FFFFFF" font-family="sans-serif"> Joe</text><text text-anchor="middle" pointer-events="none" x="0" y="10" font-size="10px" fill="#FFFFFF" font-family="sans-serif"> Johnston</text></g><g class="node selected" transform="translate(93.39276379902043,-13.721802029889071)"><circle class="outline" cx="0" cy="0" r="25" fill="#F79767" stroke="#f36924" stroke-width="2px"/><text text-anchor="middle" pointer-events="none" font-family="sans-serif" dy="1.5625" font-size="25" fill="#FFFFFF"/><text text-anchor="middle" pointer-events="none" font-family="sans-serif" dy="1.5625" font-size="25" fill="#FFFFFF"/><text text-anchor="middle" pointer-events="none" x="0" y="0" font-size="10px" fill="#FFFFFF" font-family="sans-serif"> Hugo</text><text text-anchor="middle" pointer-events="none" x="0" y="10" font-size="10px" fill="#FFFFFF" font-family="sans-serif"> Weaving</text></g><g class="node" transform="translate(0.05002157917977412,34.528322444307705)"><circle class="outline" cx="0" cy="0" r="25" fill="#F79767" stroke="#f36924" stroke-width="2px"/><text text-anchor="middle" pointer-events="none" font-family="sans-serif" dy="1.5625" font-size="25" fill="#FFFFFF"/><text text-anchor="middle" pointer-events="none" font-family="sans-serif" dy="1.5625" font-size="25" fill="#FFFFFF"/><text text-anchor="middle" pointer-events="none" font-family="sans-serif" dy="1.5625" font-size="25" fill="#FFFFFF"/><text text-anchor="middle" pointer-events="none" x="0" y="-5" font-size="10px" fill="#FFFFFF" font-family="sans-serif"> Samuel</text><text text-anchor="middle" pointer-events="none" x="0" y="5" font-size="10px" fill="#FFFFFF" font-family="sans-serif"> L.</text><text text-anchor="middle" pointer-events="none" x="0" y="15" font-size="10px" fill="#FFFFFF" font-family="sans-serif"> Jackson</text></g><g class="node" transform="translate(-17.88713359423236,138.05090381882087)"><circle class="outline" cx="0" cy="0" r="25" fill="#F79767" stroke="#f36924" stroke-width="2px"/><text text-anchor="middle" pointer-events="none" font-family="sans-serif" dy="1.5625" font-size="25" fill="#FFFFFF"/><text text-anchor="middle" pointer-events="none" x="0" y="5" font-size="10px" fill="#FFFFFF" font-family="sans-serif"> Christop…</text></g><g class="node" transform="translate(52.81606105837108,213.9927507448635)"><circle class="outline" cx="0" cy="0" r="25" fill="#F79767" stroke="#f36924" stroke-width="2px"/><text text-anchor="middle" pointer-events="none" font-family="sans-serif" dy="1.5625" font-size="25" fill="#FFFFFF"/><text text-anchor="middle" pointer-events="none" font-family="sans-serif" dy="1.5625" font-size="25" fill="#FFFFFF"/><text text-anchor="middle" pointer-events="none" x="0" y="0" font-size="10px" fill="#FFFFFF" font-family="sans-serif"> Joe</text><text text-anchor="middle" pointer-events="none" x="0" y="10" font-size="10px" fill="#FFFFFF" font-family="sans-serif"> Simon</text></g></g></svg>