<svg xmlns="http://www.w3.org/2000/svg" width="252.57797241210938" height="223.8406982421875" viewBox="-108.63802337646484 -27.1637020111084 252.57797241210938 223.8406982421875"><title>Neo4j Graph Visualization</title><desc>Created using Neo4j (http://www.neo4j.com/)</desc><g class="layer relationships"><g class="relationship" transform="translate(8.06078385153405 167.6770013597601) rotate(330.0747611477427)"><path class="outline" fill="#A5ABB6" stroke="none" d="M 25 0.5 L 35.37905365888185 0.5 L 35.37905365888185 -0.5 L 25 -0.5 Z M 80.94155365888184 0.5 L 91.3206073177637 0.5 L 91.3206073177637 3.5 L 98.3206073177637 0 L 91.3206073177637 -3.5 L 91.3206073177637 -0.5 L 80.94155365888184 -0.5 Z"/><text text-anchor="middle" pointer-events="none" font-size="8px" fill="#000000" x="58.16030365888185" y="3" font-family="sans-serif">ACTED_IN</text></g><g class="relationship" transform="translate(8.06078385153405 167.6770013597601) rotate(232.16083313533392)"><path class="outline" fill="#A5ABB6" stroke="none" d="M 25 0.5 L 45.19908738733045 0.5 L 45.19908738733045 -0.5 L 25 -0.5 Z M 90.76158738733045 0.5 L 110.9606747746609 0.5 L 110.9606747746609 3.5 L 117.9606747746609 0 L 110.9606747746609 -3.5 L 110.9606747746609 -0.5 L 90.76158738733045 -0.5 Z"/><text text-anchor="middle" pointer-events="none" font-size="8px" fill="#000000" x="67.98033738733045" y="3" transform="rotate(180 67.98033738733045 0)" font-family="sans-serif">ACTED_IN</text></g><g class="relationship" transform="translate(8.06078385153405 167.6770013597601) rotate(283.48490482817033)"><path class="outline" fill="#A5ABB6" stroke="none" d="M 25 0.5 L 25.12433062491864 0.5 L 25.12433062491864 -0.5 L 25 -0.5 Z M 50.23761187491864 0.5 L 50.36194249983728 0.5 L 50.36194249983728 3.5 L 57.36194249983728 0 L 50.36194249983728 -3.5 L 50.36194249983728 -0.5 L 50.23761187491864 -0.5 Z"/><text text-anchor="middle" pointer-events="none" font-size="8px" fill="#000000" x="37.68097124991864" y="3" font-family="sans-serif">AC…</text></g><g class="relationship" transform="translate(51.80825822829033 1.8362976471038452) rotate(418.81875016865655)"><path class="outline" fill="#A5ABB6" stroke="none" d="M 25 0.5 L 34.68642532670629 0.5 L 34.68642532670629 -0.5 L 25 -0.5 Z M 80.24892532670628 0.5 L 89.93535065341258 0.5 L 89.93535065341258 3.5 L 96.93535065341258 0 L 89.93535065341258 -3.5 L 89.93535065341258 -0.5 L 80.24892532670628 -0.5 Z"/><text text-anchor="middle" pointer-events="none" font-size="8px" fill="#000000" x="57.46767532670629" y="3" font-family="sans-serif">ACTED_IN</text></g><g class="relationship" transform="translate(51.80825822829033 1.8362976471038452) rotate(518.0630596624176)"><path class="outline" fill="#A5ABB6" stroke="none" d="M 25 0.5 L 44.57197592176465 0.5 L 44.57197592176465 -0.5 L 25 -0.5 Z M 90.13447592176465 0.5 L 109.7064518435293 0.5 L 109.7064518435293 3.5 L 116.7064518435293 0 L 109.7064518435293 -3.5 L 109.7064518435293 -0.5 L 90.13447592176465 -0.5 Z"/><text text-anchor="middle" pointer-events="none" font-size="8px" fill="#000000" x="67.35322592176465" y="3" transform="rotate(180 67.35322592176465 0)" font-family="sans-serif">ACTED_IN</text></g><g class="relationship" transform="translate(51.80825822829033 1.8362976471038452) rotate(465.97117882312784)"><path class="outline" fill="#A5ABB6" stroke="none" d="M 25 0.5 L 26.09608136445175 0.5 L 26.09608136445175 -0.5 L 25 -0.5 Z M 56.09608136445175 0.5 L 57.1921627289035 0.5 L 57.1921627289035 3.5 L 64.1921627289035 0 L 57.1921627289035 -3.5 L 57.1921627289035 -0.5 L 56.09608136445175 -0.5 Z"/><text text-anchor="middle" pointer-events="none" font-size="8px" fill="#000000" x="41.09608136445175" y="3" transform="rotate(180 41.09608136445175 0)" font-family="sans-serif">ACT…</text></g></g><g class="layer nodes"><g class="node" transform="translate(114.93992776131867,106.1561042081936)"><circle class="outline" cx="0" cy="0" r="25" fill="#57C7E3" stroke="#23b3d7" stroke-width="2px"/><text text-anchor="middle" pointer-events="none" font-family="sans-serif" dy="1.5625" font-size="25" fill="#2A2C34"/><text text-anchor="middle" pointer-events="none" font-family="sans-serif" dy="1.5625" font-size="25" fill="#2A2C34"/><text text-anchor="middle" pointer-events="none" font-family="sans-serif" dy="1.5625" font-size="25" fill="#2A2C34"/><text text-anchor="middle" pointer-events="none" x="0" y="-5" font-size="10px" fill="#2A2C34" font-family="sans-serif"> The</text><text text-anchor="middle" pointer-events="none" x="0" y="5" font-size="10px" fill="#2A2C34" font-family="sans-serif"> Matrix</text><text text-anchor="middle" pointer-events="none" x="0" y="15" font-size="10px" fill="#2A2C34" font-family="sans-serif"> Revol…</text></g><g class="node" transform="translate(8.06078385153405,167.6770013597601)"><circle class="outline" cx="0" cy="0" r="25" fill="#F79767" stroke="#f36924" stroke-width="2px"/><text text-anchor="middle" pointer-events="none" font-family="sans-serif" dy="1.5625" font-size="25" fill="#FFFFFF"/><text text-anchor="middle" pointer-events="none" font-family="sans-serif" dy="1.5625" font-size="25" fill="#FFFFFF"/><text text-anchor="middle" pointer-events="none" x="0" y="0" font-size="10px" fill="#FFFFFF" font-family="sans-serif"> Hugo</text><text text-anchor="middle" pointer-events="none" x="0" y="10" font-size="10px" fill="#FFFFFF" font-family="sans-serif"> Weaving</text></g><g class="node" transform="translate(51.80825822829033,1.8362976471038452)"><circle class="outline" cx="0" cy="0" r="25" fill="#F79767" stroke="#f36924" stroke-width="2px"/><text text-anchor="middle" pointer-events="none" font-family="sans-serif" dy="1.5625" font-size="25" fill="#FFFFFF"/><text text-anchor="middle" pointer-events="none" font-family="sans-serif" dy="1.5625" font-size="25" fill="#FFFFFF"/><text text-anchor="middle" pointer-events="none" x="0" y="0" font-size="10px" fill="#FFFFFF" font-family="sans-serif"> Keanu</text><text text-anchor="middle" pointer-events="none" x="0" y="10" font-size="10px" fill="#FFFFFF" font-family="sans-serif"> Reeves</text></g><g class="node" transform="translate(-79.63802079255967,54.77583132143213)"><circle class="outline" cx="0" cy="0" r="25" fill="#57C7E3" stroke="#23b3d7" stroke-width="2px"/><text text-anchor="middle" pointer-events="none" font-family="sans-serif" dy="1.5625" font-size="25" fill="#2A2C34"/><text text-anchor="middle" pointer-events="none" font-family="sans-serif" dy="1.5625" font-size="25" fill="#2A2C34"/><text text-anchor="middle" pointer-events="none" font-family="sans-serif" dy="1.5625" font-size="25" fill="#2A2C34"/><text text-anchor="middle" pointer-events="none" x="0" y="-5" font-size="10px" fill="#2A2C34" font-family="sans-serif"> The</text><text text-anchor="middle" pointer-events="none" x="0" y="5" font-size="10px" fill="#2A2C34" font-family="sans-serif"> Matrix</text><text text-anchor="middle" pointer-events="none" x="0" y="15" font-size="10px" fill="#2A2C34" font-family="sans-serif"> Reloa…</text></g><g class="node" transform="translate(27.266697253103473,87.58566310924816)"><circle class="outline" cx="0" cy="0" r="25" fill="#57C7E3" stroke="#23b3d7" stroke-width="2px"/><text text-anchor="middle" pointer-events="none" font-family="sans-serif" dy="1.5625" font-size="25" fill="#2A2C34"/><text text-anchor="middle" pointer-events="none" font-family="sans-serif" dy="1.5625" font-size="25" fill="#2A2C34"/><text text-anchor="middle" pointer-events="none" x="0" y="0" font-size="10px" fill="#2A2C34" font-family="sans-serif"> The</text><text text-anchor="middle" pointer-events="none" x="0" y="10" font-size="10px" fill="#2A2C34" font-family="sans-serif"> Matrix</text></g></g></svg>