<svg xmlns="http://www.w3.org/2000/svg" width="503.42340087890625" height="387.2122802734375" viewBox="-190.07411193847656 -53.9234619140625 503.42340087890625 387.2122802734375"><title>Neo4j Graph Visualization</title><desc>Created using Neo4j (http://www.neo4j.com/)</desc><g class="layer relationships"><g class="relationship" transform="translate(114.51788076020105 304.2888284952384) rotate(255.18503253289498)"><path class="outline" fill="#A5ABB6" stroke="none" d="M 25 0.5 L 35.84120861958463 0.5 L 35.84120861958463 -0.5 L 25 -0.5 Z M 81.40370861958462 0.5 L 92.24491723916925 0.5 L 92.24491723916925 3.5 L 99.24491723916925 0 L 92.24491723916925 -3.5 L 92.24491723916925 -0.5 L 81.40370861958462 -0.5 Z"/><text text-anchor="middle" pointer-events="none" font-size="8px" fill="#000000" x="58.62245861958463" y="3" transform="rotate(180 58.62245861958463 0)" font-family="sans-serif">ACTED_IN</text></g><g class="relationship" transform="translate(-52.17155394807661 147.86485830804136) rotate(520.5468948307266)"><path class="outline" fill="#A5ABB6" stroke="none" d="M 25 0.5 L 31.466597270923074 0.5 L 31.466597270923074 -0.5 L 25 -0.5 Z M 77.02909727092307 0.5 L 83.49569454184615 0.5 L 83.49569454184615 3.5 L 90.49569454184615 0 L 83.49569454184615 -3.5 L 83.49569454184615 -0.5 L 77.02909727092307 -0.5 Z"/><text text-anchor="middle" pointer-events="none" font-size="8px" fill="#000000" x="54.247847270923074" y="3" transform="rotate(180 54.247847270923074 0)" font-family="sans-serif">ACTED_IN</text></g><g class="relationship" transform="translate(-52.17155394807661 147.86485830804136) rotate(231.69681587644118)"><path class="outline" fill="#A5ABB6" stroke="none" d="M 25 0.5 L 35.04686566601855 0.5 L 35.04686566601855 -0.5 L 25 -0.5 Z M 80.60936566601855 0.5 L 90.6562313320371 0.5 L 90.6562313320371 3.5 L 97.6562313320371 0 L 90.6562313320371 -3.5 L 90.6562313320371 -0.5 L 80.60936566601855 -0.5 Z"/><text text-anchor="middle" pointer-events="none" font-size="8px" fill="#000000" x="57.82811566601855" y="3" transform="rotate(180 57.82811566601855 0)" font-family="sans-serif">ACTED_IN</text></g><g class="relationship" transform="translate(-52.17155394807661 147.86485830804136) rotate(350.17509652870194)"><path class="outline" fill="#A5ABB6" stroke="none" d="M 25 0.5 L 26.292356523826143 0.5 L 26.292356523826143 -0.5 L 25 -0.5 Z M 71.85485652382614 0.5 L 73.14721304765229 0.5 L 73.14721304765229 3.5 L 80.14721304765229 0 L 73.14721304765229 -3.5 L 73.14721304765229 -0.5 L 71.85485652382614 -0.5 Z"/><text text-anchor="middle" pointer-events="none" font-size="8px" fill="#000000" x="49.07360652382614" y="3" font-family="sans-serif">ACTED_IN</text></g><g class="relationship" transform="translate(-52.17155394807661 147.86485830804136) rotate(316.1209813522877)"><path class="outline" fill="#A5ABB6" stroke="none" d="M 25 0.5 L 26.991993251001233 0.5 L 26.991993251001233 -0.5 L 25 -0.5 Z M 68.10527450100123 0.5 L 70.09726775200247 0.5 L 70.09726775200247 3.5 L 77.09726775200247 0 L 70.09726775200247 -3.5 L 70.09726775200247 -0.5 L 68.10527450100123 -0.5 Z"/><text text-anchor="middle" pointer-events="none" font-size="8px" fill="#000000" x="47.54863387600123" y="3" font-family="sans-serif">ACTED…</text></g><g class="relationship" transform="translate(-52.17155394807661 147.86485830804136) rotate(375.06242936354056)"><path class="outline" fill="#A5ABB6" stroke="none" d="M 25 0.5 L 43.57903206928371 0.5 L 43.57903206928371 -0.5 L 25 -0.5 Z M 89.14153206928371 0.5 L 107.72056413856743 0.5 L 107.72056413856743 3.5 L 114.72056413856743 0 L 107.72056413856743 -3.5 L 107.72056413856743 -0.5 L 89.14153206928371 -0.5 Z"/><text text-anchor="middle" pointer-events="none" font-size="8px" fill="#000000" x="66.36028206928371" y="3" font-family="sans-serif">ACTED_IN</text></g><g class="relationship" transform="translate(101.1875550976305 43.94821477636115) rotate(480.05823017823724)"><path class="outline" fill="#A5ABB6" stroke="none" d="M 25 0.5 L 25.609960540769684 0.5 L 25.609960540769684 -0.5 L 25 -0.5 Z M 66.72324179076969 0.5 L 67.33320233153937 0.5 L 67.33320233153937 3.5 L 74.33320233153937 0 L 67.33320233153937 -3.5 L 67.33320233153937 -0.5 L 66.72324179076969 -0.5 Z"/><text text-anchor="middle" pointer-events="none" font-size="8px" fill="#000000" x="46.166601165769684" y="3" transform="rotate(180 46.166601165769684 0)" font-family="sans-serif">ACTED…</text></g><g class="relationship" transform="translate(101.1875550976305 43.94821477636115) rotate(517.4334322817429)"><path class="outline" fill="#A5ABB6" stroke="none" d="M 25 0.5 L 27.133703256462717 0.5 L 27.133703256462717 -0.5 L 25 -0.5 Z M 52.24698450646272 0.5 L 54.38068776292543 0.5 L 54.38068776292543 3.5 L 61.38068776292543 0 L 54.38068776292543 -3.5 L 54.38068776292543 -0.5 L 52.24698450646272 -0.5 Z"/><text text-anchor="middle" pointer-events="none" font-size="8px" fill="#000000" x="39.69034388146272" y="3" transform="rotate(180 39.69034388146272 0)" font-family="sans-serif">AC…</text></g><g class="relationship" transform="translate(101.1875550976305 43.94821477636115) rotate(457.49107744617675)"><path class="outline" fill="#A5ABB6" stroke="none" d="M 25 0.5 L 44.435311834701466 0.5 L 44.435311834701466 -0.5 L 25 -0.5 Z M 89.99781183470147 0.5 L 109.43312366940293 0.5 L 109.43312366940293 3.5 L 116.43312366940293 0 L 109.43312366940293 -3.5 L 109.43312366940293 -0.5 L 89.99781183470147 -0.5 Z"/><text text-anchor="middle" pointer-events="none" font-size="8px" fill="#000000" x="67.21656183470147" y="3" transform="rotate(180 67.21656183470147 0)" font-family="sans-serif">ACTED_IN</text></g><g class="relationship" transform="translate(-9.842941673582716 212.79567120911148) rotate(306.479342223349)"><path class="outline" fill="#A5ABB6" stroke="none" d="M 25 0.5 L 25.25205551644246 0.5 L 25.25205551644246 -0.5 L 25 -0.5 Z M 70.81455551644245 0.5 L 71.06661103288492 0.5 L 71.06661103288492 3.5 L 78.06661103288492 0 L 71.06661103288492 -3.5 L 71.06661103288492 -0.5 L 70.81455551644245 -0.5 Z"/><text text-anchor="middle" pointer-events="none" font-size="8px" fill="#000000" x="48.03330551644246" y="3" font-family="sans-serif">ACTED_IN</text></g><g class="relationship" transform="translate(-9.842941673582716 212.79567120911148) rotate(282.97401566320934)"><path class="outline" fill="#A5ABB6" stroke="none" d="M 25 0.5 L 43.3453288962217 0.5 L 43.3453288962217 -0.5 L 25 -0.5 Z M 88.9078288962217 0.5 L 107.2531577924434 0.5 L 107.2531577924434 3.5 L 114.2531577924434 0 L 107.2531577924434 -3.5 L 107.2531577924434 -0.5 L 88.9078288962217 -0.5 Z"/><text text-anchor="middle" pointer-events="none" font-size="8px" fill="#000000" x="66.1265788962217" y="3" font-family="sans-serif">ACTED_IN</text></g><g class="relationship" transform="translate(-9.842941673582716 212.79567120911148) rotate(342.82284485692935)"><path class="outline" fill="#A5ABB6" stroke="none" d="M 25 0.5 L 27.289209282681995 0.5 L 27.289209282681995 -0.5 L 25 -0.5 Z M 62.625146782681995 0.5 L 64.91435606536399 0.5 L 64.91435606536399 3.5 L 71.91435606536399 0 L 64.91435606536399 -3.5 L 64.91435606536399 -0.5 L 62.625146782681995 -0.5 Z"/><text text-anchor="middle" pointer-events="none" font-size="8px" fill="#000000" x="44.957178032681995" y="3" font-family="sans-serif">ACTE…</text></g><g class="relationship" transform="translate(159.75554120809585 103.53806429927059) rotate(401.0622286502464)"><path class="outline" fill="#A5ABB6" stroke="none" d="M 25 0.5 L 36.586470453186465 0.5 L 36.586470453186465 -0.5 L 25 -0.5 Z M 82.14897045318646 0.5 L 93.73544090637293 0.5 L 93.73544090637293 3.5 L 100.73544090637293 0 L 93.73544090637293 -3.5 L 93.73544090637293 -0.5 L 82.14897045318646 -0.5 Z"/><text text-anchor="middle" pointer-events="none" font-size="8px" fill="#000000" x="59.367720453186465" y="3" font-family="sans-serif">ACTED_IN</text></g><g class="relationship" transform="translate(159.75554120809585 103.53806429927059) rotate(319.2915765791246)"><path class="outline" fill="#A5ABB6" stroke="none" d="M 25 0.5 L 36.3853876425639 0.5 L 36.3853876425639 -0.5 L 25 -0.5 Z M 81.9478876425639 0.5 L 93.3332752851278 0.5 L 93.3332752851278 3.5 L 100.3332752851278 0 L 93.3332752851278 -3.5 L 93.3332752851278 -0.5 L 81.9478876425639 -0.5 Z"/><text text-anchor="middle" pointer-events="none" font-size="8px" fill="#000000" x="59.1666376425639" y="3" font-family="sans-serif">ACTED_IN</text></g><g class="relationship" transform="translate(159.75554120809585 103.53806429927059) rotate(279.7254401447688)"><path class="outline" fill="#A5ABB6" stroke="none" d="M 25 0.5 L 38.88606074248219 0.5 L 38.88606074248219 -0.5 L 25 -0.5 Z M 84.44856074248219 0.5 L 98.33462148496437 0.5 L 98.33462148496437 3.5 L 105.33462148496437 0 L 98.33462148496437 -3.5 L 98.33462148496437 -0.5 L 84.44856074248219 -0.5 Z"/><text text-anchor="middle" pointer-events="none" font-size="8px" fill="#000000" x="61.66731074248219" y="3" font-family="sans-serif">ACTED_IN</text></g><g class="relationship" transform="translate(159.75554120809585 103.53806429927059) rotate(359.28173530875017)"><path class="outline" fill="#A5ABB6" stroke="none" d="M 25 0.5 L 36.020549592049186 0.5 L 36.020549592049186 -0.5 L 25 -0.5 Z M 81.58304959204918 0.5 L 92.60359918409837 0.5 L 92.60359918409837 3.5 L 99.60359918409837 0 L 92.60359918409837 -3.5 L 92.60359918409837 -0.5 L 81.58304959204918 -0.5 Z"/><text text-anchor="middle" pointer-events="none" font-size="8px" fill="#000000" x="58.801799592049186" y="3" font-family="sans-serif">ACTED_IN</text></g><g class="relationship" transform="translate(159.75554120809585 103.53806429927059) rotate(526.3106591777766)"><path class="outline" fill="#A5ABB6" stroke="none" d="M 25 0.5 L 29.4632702503693 0.5 L 29.4632702503693 -0.5 L 25 -0.5 Z M 75.0257702503693 0.5 L 79.4890405007386 0.5 L 79.4890405007386 3.5 L 86.4890405007386 0 L 79.4890405007386 -3.5 L 79.4890405007386 -0.5 L 75.0257702503693 -0.5 Z"/><text text-anchor="middle" pointer-events="none" font-size="8px" fill="#000000" x="52.2445202503693" y="3" transform="rotate(180 52.2445202503693 0)" font-family="sans-serif">ACTED_IN</text></g><g class="relationship" transform="translate(159.75554120809585 103.53806429927059) rotate(190.82074181913606)"><path class="outline" fill="#A5ABB6" stroke="none" d="M 25 0.5 L 44.13829303383433 0.5 L 44.13829303383433 -0.5 L 25 -0.5 Z M 89.70079303383433 0.5 L 108.83908606766866 0.5 L 108.83908606766866 3.5 L 115.83908606766866 0 L 108.83908606766866 -3.5 L 108.83908606766866 -0.5 L 89.70079303383433 -0.5 Z"/><text text-anchor="middle" pointer-events="none" font-size="8px" fill="#000000" x="66.91954303383433" y="3" transform="rotate(180 66.91954303383433 0)" font-family="sans-serif">ACTED_IN</text></g><g class="relationship" transform="translate(159.75554120809585 103.53806429927059) rotate(493.6811575947329)"><path class="outline" fill="#A5ABB6" stroke="none" d="M 25 0.5 L 29.468751073931017 0.5 L 29.468751073931017 -0.5 L 25 -0.5 Z M 75.03125107393102 0.5 L 79.50000214786203 0.5 L 79.50000214786203 3.5 L 86.50000214786203 0 L 79.50000214786203 -3.5 L 79.50000214786203 -0.5 L 75.03125107393102 -0.5 Z"/><text text-anchor="middle" pointer-events="none" font-size="8px" fill="#000000" x="52.25000107393102" y="3" transform="rotate(180 52.25000107393102 0)" font-family="sans-serif">ACTED_IN</text></g></g><g class="layer nodes"><g class="node" transform="translate(82.74866489660859,184.17423161717167)"><circle class="outline" cx="0" cy="0" r="25" fill="#57C7E3" stroke="#23b3d7" stroke-width="2px"/><text text-anchor="middle" pointer-events="none" font-family="sans-serif" dy="1.5625" font-size="25" fill="#2A2C34"/><text text-anchor="middle" pointer-events="none" font-family="sans-serif" dy="1.5625" font-size="25" fill="#2A2C34"/><text text-anchor="middle" pointer-events="none" x="0" y="0" font-size="10px" fill="#2A2C34" font-family="sans-serif"> The</text><text text-anchor="middle" pointer-events="none" x="0" y="10" font-size="10px" fill="#2A2C34" font-family="sans-serif"> Matrix</text></g><g class="node" transform="translate(114.51788076020105,304.2888284952384)"><circle class="outline" cx="0" cy="0" r="25" fill="#F79767" stroke="#f36924" stroke-width="2px"/><text text-anchor="middle" pointer-events="none" font-family="sans-serif" dy="1.5625" font-size="25" fill="#FFFFFF"/><text text-anchor="middle" pointer-events="none" font-family="sans-serif" dy="1.5625" font-size="25" fill="#FFFFFF"/><text text-anchor="middle" pointer-events="none" x="0" y="0" font-size="10px" fill="#FFFFFF" font-family="sans-serif"> Emil</text><text text-anchor="middle" pointer-events="none" x="0" y="10" font-size="10px" fill="#FFFFFF" font-family="sans-serif"> Eifrem</text></g><g class="node" transform="translate(-52.17155394807661,147.86485830804136)"><circle class="outline" cx="0" cy="0" r="25" fill="#F79767" stroke="#f36924" stroke-width="2px"/><text text-anchor="middle" pointer-events="none" font-family="sans-serif" dy="1.5625" font-size="25" fill="#FFFFFF"/><text text-anchor="middle" pointer-events="none" font-family="sans-serif" dy="1.5625" font-size="25" fill="#FFFFFF"/><text text-anchor="middle" pointer-events="none" x="0" y="0" font-size="10px" fill="#FFFFFF" font-family="sans-serif"> Hugo</text><text text-anchor="middle" pointer-events="none" x="0" y="10" font-size="10px" fill="#FFFFFF" font-family="sans-serif"> Weaving</text></g><g class="node" transform="translate(101.1875550976305,43.94821477636115)"><circle class="outline" cx="0" cy="0" r="25" fill="#F79767" stroke="#f36924" stroke-width="2px"/><text text-anchor="middle" pointer-events="none" font-family="sans-serif" dy="1.5625" font-size="25" fill="#FFFFFF"/><text text-anchor="middle" pointer-events="none" font-family="sans-serif" dy="1.5625" font-size="25" fill="#FFFFFF"/><text text-anchor="middle" pointer-events="none" x="0" y="0" font-size="10px" fill="#FFFFFF" font-family="sans-serif"> Laurence</text><text text-anchor="middle" pointer-events="none" x="0" y="10" font-size="10px" fill="#FFFFFF" font-family="sans-serif"> Fishbur…</text></g><g class="node" transform="translate(-9.842941673582716,212.79567120911148)"><circle class="outline" cx="0" cy="0" r="25" fill="#F79767" stroke="#f36924" stroke-width="2px"/><text text-anchor="middle" pointer-events="none" font-family="sans-serif" dy="1.5625" font-size="25" fill="#FFFFFF"/><text text-anchor="middle" pointer-events="none" x="0" y="5" font-size="10px" fill="#FFFFFF" font-family="sans-serif"> Carrie-A…</text></g><g class="node" transform="translate(159.75554120809585,103.53806429927059)"><circle class="outline" cx="0" cy="0" r="25" fill="#F79767" stroke="#f36924" stroke-width="2px"/><text text-anchor="middle" pointer-events="none" font-family="sans-serif" dy="1.5625" font-size="25" fill="#FFFFFF"/><text text-anchor="middle" pointer-events="none" font-family="sans-serif" dy="1.5625" font-size="25" fill="#FFFFFF"/><text text-anchor="middle" pointer-events="none" x="0" y="0" font-size="10px" fill="#FFFFFF" font-family="sans-serif"> Keanu</text><text text-anchor="middle" pointer-events="none" x="0" y="10" font-size="10px" fill="#FFFFFF" font-family="sans-serif"> Reeves</text></g><g class="node" transform="translate(21.420665370580892,77.09737044688652)"><circle class="outline" cx="0" cy="0" r="25" fill="#57C7E3" stroke="#23b3d7" stroke-width="2px"/><text text-anchor="middle" pointer-events="none" font-family="sans-serif" dy="1.5625" font-size="25" fill="#2A2C34"/><text text-anchor="middle" pointer-events="none" font-family="sans-serif" dy="1.5625" font-size="25" fill="#2A2C34"/><text text-anchor="middle" pointer-events="none" font-family="sans-serif" dy="1.5625" font-size="25" fill="#2A2C34"/><text text-anchor="middle" pointer-events="none" x="0" y="-5" font-size="10px" fill="#2A2C34" font-family="sans-serif"> The</text><text text-anchor="middle" pointer-events="none" x="0" y="5" font-size="10px" fill="#2A2C34" font-family="sans-serif"> Matrix</text><text text-anchor="middle" pointer-events="none" x="0" y="15" font-size="10px" fill="#2A2C34" font-family="sans-serif"> Reloa…</text></g><g class="node" transform="translate(51.433551594430384,129.92277043582408)"><circle class="outline" cx="0" cy="0" r="25" fill="#57C7E3" stroke="#23b3d7" stroke-width="2px"/><text text-anchor="middle" pointer-events="none" font-family="sans-serif" dy="1.5625" font-size="25" fill="#2A2C34"/><text text-anchor="middle" pointer-events="none" font-family="sans-serif" dy="1.5625" font-size="25" fill="#2A2C34"/><text text-anchor="middle" pointer-events="none" font-family="sans-serif" dy="1.5625" font-size="25" fill="#2A2C34"/><text text-anchor="middle" pointer-events="none" x="0" y="-5" font-size="10px" fill="#2A2C34" font-family="sans-serif"> The</text><text text-anchor="middle" pointer-events="none" x="0" y="5" font-size="10px" fill="#2A2C34" font-family="sans-serif"> Matrix</text><text text-anchor="middle" pointer-events="none" x="0" y="15" font-size="10px" fill="#2A2C34" font-family="sans-serif"> Revol…</text></g><g class="node" transform="translate(284.3493495810268,101.97606405573518)"><circle class="outline" cx="0" cy="0" r="25" fill="#57C7E3" stroke="#23b3d7" stroke-width="2px"/><text text-anchor="middle" pointer-events="none" font-family="sans-serif" dy="1.5625" font-size="25" fill="#2A2C34"/><text text-anchor="middle" pointer-events="none" font-family="sans-serif" dy="1.5625" font-size="25" fill="#2A2C34"/><text text-anchor="middle" pointer-events="none" font-family="sans-serif" dy="1.5625" font-size="25" fill="#2A2C34"/><text text-anchor="middle" pointer-events="none" x="0" y="-5" font-size="10px" fill="#2A2C34" font-family="sans-serif"> The</text><text text-anchor="middle" pointer-events="none" x="0" y="5" font-size="10px" fill="#2A2C34" font-family="sans-serif"> Devil's</text><text text-anchor="middle" pointer-events="none" x="0" y="15" font-size="10px" fill="#2A2C34" font-family="sans-serif"> Advoc…</text></g><g class="node" transform="translate(254.76298404491214,21.794467000725493)"><circle class="outline" cx="0" cy="0" r="25" fill="#57C7E3" stroke="#23b3d7" stroke-width="2px"/><text text-anchor="middle" pointer-events="none" font-family="sans-serif" dy="1.5625" font-size="25" fill="#2A2C34"/><text text-anchor="middle" pointer-events="none" font-family="sans-serif" dy="1.5625" font-size="25" fill="#2A2C34"/><text text-anchor="middle" pointer-events="none" x="0" y="0" font-size="10px" fill="#2A2C34" font-family="sans-serif"> The</text><text text-anchor="middle" pointer-events="none" x="0" y="10" font-size="10px" fill="#2A2C34" font-family="sans-serif"> Replac…</text></g><g class="node" transform="translate(181.772581639131,-24.9234610236334)"><circle class="outline" cx="0" cy="0" r="25" fill="#57C7E3" stroke="#23b3d7" stroke-width="2px"/><text text-anchor="middle" pointer-events="none" font-family="sans-serif" dy="1.5625" font-size="25" fill="#2A2C34"/><text text-anchor="middle" pointer-events="none" font-family="sans-serif" dy="1.5625" font-size="25" fill="#2A2C34"/><text text-anchor="middle" pointer-events="none" x="0" y="0" font-size="10px" fill="#2A2C34" font-family="sans-serif"> Johnny</text><text text-anchor="middle" pointer-events="none" x="0" y="10" font-size="10px" fill="#2A2C34" font-family="sans-serif"> Mnemo…</text></g><g class="node" transform="translate(-161.07410584805473,186.32899286708226)"><circle class="outline" cx="0" cy="0" r="25" fill="#57C7E3" stroke="#23b3d7" stroke-width="2px"/><text text-anchor="middle" pointer-events="none" font-family="sans-serif" dy="1.5625" font-size="25" fill="#2A2C34"/><text text-anchor="middle" pointer-events="none" font-family="sans-serif" dy="1.5625" font-size="25" fill="#2A2C34"/><text text-anchor="middle" pointer-events="none" x="0" y="0" font-size="10px" fill="#2A2C34" font-family="sans-serif"> Cloud</text><text text-anchor="middle" pointer-events="none" x="0" y="10" font-size="10px" fill="#2A2C34" font-family="sans-serif"> Atlas</text></g><g class="node" transform="translate(-128.19666350146917,51.61137108823796)"><circle class="outline" cx="0" cy="0" r="25" fill="#57C7E3" stroke="#23b3d7" stroke-width="2px"/><text text-anchor="middle" pointer-events="none" font-family="sans-serif" dy="1.5625" font-size="25" fill="#2A2C34"/><text text-anchor="middle" pointer-events="none" font-family="sans-serif" dy="1.5625" font-size="25" fill="#2A2C34"/><text text-anchor="middle" pointer-events="none" x="0" y="0" font-size="10px" fill="#2A2C34" font-family="sans-serif"> V for</text><text text-anchor="middle" pointer-events="none" x="0" y="10" font-size="10px" fill="#2A2C34" font-family="sans-serif"> Vendetta</text></g><g class="node" transform="translate(254.55963525966663,186.13095050008644)"><circle class="outline" cx="0" cy="0" r="25" fill="#57C7E3" stroke="#23b3d7" stroke-width="2px"/><text text-anchor="middle" pointer-events="none" font-family="sans-serif" dy="1.5625" font-size="25" fill="#2A2C34"/><text text-anchor="middle" pointer-events="none" x="0" y="5" font-size="10px" fill="#2A2C34" font-family="sans-serif"> Somethi…</text></g></g></svg>