<svg xmlns="http://www.w3.org/2000/svg" width="379.8167724609375" height="371.1954345703125" viewBox="-92.30191040039062 -82.77549743652344 379.8167724609375 371.1954345703125"><title>Neo4j Graph Visualization</title><desc>Created using Neo4j (http://www.neo4j.com/)</desc><g class="layer relationships"><g class="relationship" transform="translate(152.02757821674007 259.41993361579813) rotate(305.6368803351621)"><path class="outline" fill="#A5ABB6" stroke="none" d="M 24.018736134675446,6.953439040707552 L 24.277555179777966,5.987513214418485 A 100.13269511347653 100.13269511347653 0 0 0 25.4882234292576,6.3038165367286325 L 25.24149502296299,7.272901204612367 A 101.13269511347653 101.13269511347653 0 0 1 24.018736134675446,6.953439040707552 Z M 71.93372731717295,8.035161524857529 L 71.71876297176328,7.058539627600155 A 100.13269511347653 100.13269511347653 0 0 0 72.93911075934588,6.781923143375982 L 72.25765580536766,3.86034494902647 L 79.86970237182445,5.678791283151744 L 73.84771736465017,10.677360735841999 L 73.16626241067195,7.755782541492486 A 101.13269511347653 101.13269511347653 0 0 1 71.93372731717295,8.035161524857529"/><text text-anchor="middle" pointer-events="none" font-size="8px" fill="#000000" x="48.55117309027422" y="12.886044813287" font-family="sans-serif">DIRECTED</text></g><g class="relationship" transform="translate(152.02757821674007 259.41993361579813) rotate(305.6368803351621)"><path class="outline" fill="#A5ABB6" stroke="none" d="M 24.018736134675446,-6.953439040707552 L 24.277555179777966,-5.987513214418485 A 100.13269511347653 100.13269511347653 0 0 1 30.88316141078686,-7.519775856608575 L 30.69031089098492,-8.501004003887346 A 101.13269511347653 101.13269511347653 0 0 0 24.018736134675446,-6.953439040707552 Z M 66.44772764974721,-9.084751205733042 L 66.28700886420589,-8.097750966637761 A 100.13269511347653 100.13269511347653 0 0 1 72.93911075934588,-6.781923143375982 L 72.25765580536766,-3.86034494902647 L 79.86970237182445,-5.678791283151744 L 73.84771736465017,-10.677360735841999 L 73.16626241067195,-7.755782541492486 A 101.13269511347653 101.13269511347653 0 0 0 66.44772764974721,-9.084751205733042"/><text text-anchor="middle" pointer-events="none" font-size="8px" fill="#000000" x="48.55117309027417" y="-6.8860448132870005" font-family="sans-serif">WROTE</text></g><g class="relationship" transform="translate(258.5148583782762 81.02056966067023) rotate(476.0323388597493)"><path class="outline" fill="#A5ABB6" stroke="none" d="M 24.018736134675446,6.953439040707552 L 24.277555179777966,5.987513214418485 A 100.25992643056244 100.25992643056244 0 0 0 25.51925337818191,6.311722229721568 L 25.272819123719188,7.280881740961789 A 101.25992643056244 101.25992643056244 0 0 1 24.018736134675446,6.953439040707552 Z M 71.96583699649159,8.042718784461584 L 71.75115085003449,7.066035694345146 A 100.25992643056244 100.25992643056244 0 0 0 73.00276481203436,6.782507227255515 L 72.32125529904195,3.8609417592742057 L 79.93333582282283,5.679245941603436 L 73.91144416269091,10.677927851230592 L 73.2299346496985,7.756362383249284 A 101.25992643056244 101.25992643056244 0 0 1 71.96583699649159,8.042718784461584"/><text text-anchor="middle" pointer-events="none" font-size="8px" fill="#000000" x="48.58296687494741" y="12.890378517002546" transform="rotate(180 48.58296687494741 9.890378517002546)" font-family="sans-serif">DIRECTED</text></g><g class="relationship" transform="translate(258.5148583782762 81.02056966067023) rotate(476.0323388597493)"><path class="outline" fill="#A5ABB6" stroke="none" d="M 24.018736134675446,-6.953439040707552 L 24.277555179777966,-5.987513214418485 A 100.25992643056244 100.25992643056244 0 0 1 30.914553581993527,-7.526240203119286 L 30.721932455027446,-8.507513407403565 A 101.25992643056244 101.25992643056244 0 0 0 24.018736134675446,-6.953439040707552 Z M 66.47960761851148,-9.090930859734485 L 66.31910114185439,-8.103896072631656 A 100.25992643056244 100.25992643056244 0 0 1 73.00276481203436,-6.782507227255515 L 72.32125529904195,-3.8609417592742057 L 79.93333582282283,-5.679245941603436 L 73.91144416269091,-10.677927851230592 L 73.2299346496985,-7.756362383249284 A 101.25992643056244 101.25992643056244 0 0 0 66.47960761851148,-9.090930859734485"/><text text-anchor="middle" pointer-events="none" font-size="8px" fill="#000000" x="48.58296687494737" y="-6.890378517002546" transform="rotate(180 48.58296687494737 -9.890378517002546)" font-family="sans-serif">WROTE</text></g><g class="relationship" transform="translate(143.31513748200322 -53.77550254484195) rotate(534.8153342831035)"><path class="outline" fill="#A5ABB6" stroke="none" d="M 21.40063509461097,12.933012701892217 L 21.90063509461097,12.06698729810778 A 56.71247608283974 56.71247608283974 0 0 0 23.85584001989928,13.14507554681142 L 23.39031576598436,14.030110669852853 A 57.71247608283974 57.71247608283974 0 0 1 21.40063509461097,12.933012701892217 Z M 73.8341180150529,15.629324846069999 L 73.42558858642155,14.716579697662098 A 56.71247608283974 56.71247608283974 0 0 0 75.44515559594674,13.764503195535328 L 74.11273541966366,11.076631086629522 L 81.93892721277415,11.103501469025755 L 77.22171583099086,17.348332674076403 L 75.88929565470778,14.660460565170597 A 57.71247608283974 57.71247608283974 0 0 1 73.8341180150529,15.629324846069999"/><text text-anchor="middle" pointer-events="none" font-size="8px" fill="#000000" x="48.44398327087021" y="23.136288677226098" transform="rotate(180 48.44398327087021 20.136288677226098)" font-family="sans-serif">PRODUCED</text></g><g class="relationship" transform="translate(143.31513748200322 -53.77550254484195) rotate(534.8153342831035)"><path class="outline" fill="#A5ABB6" stroke="none" d="M 25 0.5 L 25.223618226827945 0.5 L 25.223618226827945 -0.5 L 25 -0.5 Z M 72.11424322682794 0.5 L 72.33786145365589 0.5 L 72.33786145365589 3.5 L 79.33786145365589 0 L 72.33786145365589 -3.5 L 72.33786145365589 -0.5 L 72.11424322682794 -0.5 Z"/><text text-anchor="middle" pointer-events="none" font-size="8px" fill="#000000" x="48.668930726827945" y="3" transform="rotate(180 48.668930726827945 0)" font-family="sans-serif">DIRECTED</text></g><g class="relationship" transform="translate(143.31513748200322 -53.77550254484195) rotate(534.8153342831035)"><path class="outline" fill="#A5ABB6" stroke="none" d="M 21.40063509461097,-12.933012701892217 L 21.90063509461097,-12.06698729810778 A 56.71247608283974 56.71247608283974 0 0 1 31.112720611987577,-16.336119994457505 L 30.775155514387546,-17.277422180199302 A 57.71247608283974 57.71247608283974 0 0 0 21.40063509461097,-12.933012701892217 Z M 66.25841640226251,-18.402344000131087 L 65.98115324614245,-17.441549983570646 A 56.71247608283974 56.71247608283974 0 0 1 75.44515559594674,-13.764503195535328 L 74.11273541966366,-11.076631086629522 L 81.93892721277415,-11.103501469025755 L 77.22171583099086,-17.348332674076403 L 75.88929565470778,-14.660460565170597 A 57.71247608283974 57.71247608283974 0 0 0 66.25841640226251,-18.402344000131087"/><text text-anchor="middle" pointer-events="none" font-size="8px" fill="#000000" x="48.443983270870206" y="-17.136288677226098" transform="rotate(180 48.443983270870206 -20.136288677226098)" font-family="sans-serif">WROTE</text></g><g class="relationship" transform="translate(-63.30190945274783 98.80035780104787) rotate(432.5820767805951)"><path class="outline" fill="#A5ABB6" stroke="none" d="M 21.40063509461097,12.933012701892217 L 21.90063509461097,12.06698729810778 A 57.60985202402564 57.60985202402564 0 0 0 31.533913389111007,16.50165606430751 L 31.20112920300483,17.444659078871965 A 58.60985202402564 58.60985202402564 0 0 1 21.40063509461097,12.933012701892217 Z M 66.69775084017907,18.56124673949965 L 66.42489245236058,17.599192530945324 A 57.60985202402564 57.60985202402564 0 0 0 76.31784509110825,13.778744147222728 L 74.98410009343998,11.091529179789926 L 82.81030418139616,11.114541647235567 L 78.09617175466595,17.36169743713313 L 76.76242675699767,14.67448246970033 A 58.60985202402564 58.60985202402564 0 0 1 66.69775084017907,18.56124673949965"/><text text-anchor="middle" pointer-events="none" font-size="8px" fill="#000000" x="48.87855157371128" y="23.256515707338316" font-family="sans-serif">WROTE</text></g><g class="relationship" transform="translate(-63.30190945274783 98.80035780104787) rotate(432.5820767805951)"><path class="outline" fill="#A5ABB6" stroke="none" d="M 25 0.5 L 25.65656862166808 0.5 L 25.65656862166808 -0.5 L 25 -0.5 Z M 72.54719362166807 0.5 L 73.20376224333616 0.5 L 73.20376224333616 3.5 L 80.20376224333616 0 L 73.20376224333616 -3.5 L 73.20376224333616 -0.5 L 72.54719362166807 -0.5 Z"/><text text-anchor="middle" pointer-events="none" font-size="8px" fill="#000000" x="49.10188112166808" y="3" font-family="sans-serif">DIRECTED</text></g><g class="relationship" transform="translate(-63.30190945274783 98.80035780104787) rotate(432.5820767805951)"><path class="outline" fill="#A5ABB6" stroke="none" d="M 21.40063509461097,-12.933012701892217 L 21.90063509461097,-12.06698729810778 A 57.60985202402564 57.60985202402564 0 0 1 24.256357994297424,-13.354828285567287 L 23.79724896722865,-14.24320821626359 A 58.60985202402564 58.60985202402564 0 0 0 21.40063509461097,-12.933012701892217 Z M 74.28820507164414,-15.831460166991278 L 73.88583852147177,-14.915981516610842 A 57.60985202402564 57.60985202402564 0 0 1 76.31784509110825,-13.778744147222728 L 74.98410009343998,-11.091529179789926 L 82.81030418139616,-11.114541647235567 L 78.09617175466595,-17.36169743713313 L 76.76242675699767,-14.67448246970033 A 58.60985202402564 58.60985202402564 0 0 0 74.28820507164414,-15.831460166991278"/><text text-anchor="middle" pointer-events="none" font-size="8px" fill="#000000" x="48.87855157371128" y="-17.256515707338316" font-family="sans-serif">PRODUCED</text></g></g><g class="layer nodes"><g class="node" transform="translate(152.02757821674007,259.41993361579813)"><circle class="outline" cx="0" cy="0" r="25" fill="#F79767" stroke="#f36924" stroke-width="2px"/><text text-anchor="middle" pointer-events="none" font-family="sans-serif" dy="1.5625" font-size="25" fill="#FFFFFF"/><text text-anchor="middle" pointer-events="none" font-family="sans-serif" dy="1.5625" font-size="25" fill="#FFFFFF"/><text text-anchor="middle" pointer-events="none" x="0" y="0" font-size="10px" fill="#FFFFFF" font-family="sans-serif"> Lilly</text><text text-anchor="middle" pointer-events="none" x="0" y="10" font-size="10px" fill="#FFFFFF" font-family="sans-serif"> Wacho…</text></g><g class="node" transform="translate(212.74874675071362,174.72074004010074)"><circle class="outline" cx="0" cy="0" r="25" fill="#57C7E3" stroke="#23b3d7" stroke-width="2px"/><text text-anchor="middle" pointer-events="none" font-family="sans-serif" dy="1.5625" font-size="25" fill="#2A2C34"/><text text-anchor="middle" pointer-events="none" font-family="sans-serif" dy="1.5625" font-size="25" fill="#2A2C34"/><text text-anchor="middle" pointer-events="none" x="0" y="0" font-size="10px" fill="#2A2C34" font-family="sans-serif"> Speed</text><text text-anchor="middle" pointer-events="none" x="0" y="10" font-size="10px" fill="#2A2C34" font-family="sans-serif"> Racer</text></g><g class="node" transform="translate(258.5148583782762,81.02056966067023)"><circle class="outline" cx="0" cy="0" r="25" fill="#F79767" stroke="#f36924" stroke-width="2px"/><text text-anchor="middle" pointer-events="none" font-family="sans-serif" dy="1.5625" font-size="25" fill="#FFFFFF"/><text text-anchor="middle" pointer-events="none" font-family="sans-serif" dy="1.5625" font-size="25" fill="#FFFFFF"/><text text-anchor="middle" pointer-events="none" x="0" y="0" font-size="10px" fill="#FFFFFF" font-family="sans-serif"> Lana</text><text text-anchor="middle" pointer-events="none" x="0" y="10" font-size="10px" fill="#FFFFFF" font-family="sans-serif"> Wacho…</text></g><g class="node" transform="translate(143.31513748200322,-53.77550254484195)"><circle class="outline" cx="0" cy="0" r="25" fill="#F79767" stroke="#f36924" stroke-width="2px"/><text text-anchor="middle" pointer-events="none" font-family="sans-serif" dy="1.5625" font-size="25" fill="#FFFFFF"/><text text-anchor="middle" pointer-events="none" font-family="sans-serif" dy="1.5625" font-size="25" fill="#FFFFFF"/><text text-anchor="middle" pointer-events="none" x="0" y="0" font-size="10px" fill="#FFFFFF" font-family="sans-serif"> Cameron</text><text text-anchor="middle" pointer-events="none" x="0" y="10" font-size="10px" fill="#FFFFFF" font-family="sans-serif"> Crowe</text></g><g class="node" transform="translate(39.40416194259112,-44.34690269279664)"><circle class="outline" cx="0" cy="0" r="25" fill="#57C7E3" stroke="#23b3d7" stroke-width="2px"/><text text-anchor="middle" pointer-events="none" font-family="sans-serif" dy="1.5625" font-size="25" fill="#2A2C34"/><text text-anchor="middle" pointer-events="none" font-family="sans-serif" dy="1.5625" font-size="25" fill="#2A2C34"/><text text-anchor="middle" pointer-events="none" x="0" y="0" font-size="10px" fill="#2A2C34" font-family="sans-serif"> Jerry</text><text text-anchor="middle" pointer-events="none" x="0" y="10" font-size="10px" fill="#2A2C34" font-family="sans-serif"> Maguire</text></g><g class="node" transform="translate(-63.30190945274783,98.80035780104787)"><circle class="outline" cx="0" cy="0" r="25" fill="#F79767" stroke="#f36924" stroke-width="2px"/><text text-anchor="middle" pointer-events="none" font-family="sans-serif" dy="1.5625" font-size="25" fill="#FFFFFF"/><text text-anchor="middle" pointer-events="none" font-family="sans-serif" dy="1.5625" font-size="25" fill="#FFFFFF"/><text text-anchor="middle" pointer-events="none" x="0" y="0" font-size="10px" fill="#FFFFFF" font-family="sans-serif"> Nancy</text><text text-anchor="middle" pointer-events="none" x="0" y="10" font-size="10px" fill="#FFFFFF" font-family="sans-serif"> Meyers</text></g><g class="node" transform="translate(-31.810290766776134,199.18018417412824)"><circle class="outline" cx="0" cy="0" r="25" fill="#57C7E3" stroke="#23b3d7" stroke-width="2px"/><text text-anchor="middle" pointer-events="none" font-family="sans-serif" dy="1.5625" font-size="25" fill="#2A2C34"/><text text-anchor="middle" pointer-events="none" x="0" y="5" font-size="10px" fill="#2A2C34" font-family="sans-serif"> Somethi…</text></g></g></svg>